<svg width="57" height="57" viewBox="0 0 57 57" fill="none" xmlns="http://www.w3.org/2000/svg">
<path d="M4.07029 19.006H52.93V54.2926H55.6375V10.8657H52.93V16.2807H4.07029V10.8657H1.36279V54.2926H4.07029V19.006Z" fill="#F4F4F4"/>
<path d="M52.9302 8.14014H50.2227V10.8654H52.9302V8.14014Z" fill="#F4F4F4"/>
<path d="M52.93 54.2925H4.07031V57H52.93V54.2925Z" fill="#F4F4F4"/>
<path d="M44.7899 32.5791H39.3571V35.2866H36.6496V32.5791H31.2168V35.2866H28.5093V40.7194H31.2168V43.4269H33.9243V46.1344H36.6496V48.8597H39.3571V46.1344H42.0646V43.4269H44.7899V40.7194H47.4974V35.2866H44.7899V32.5791Z" fill="#F4F4F4"/>
<path d="M44.7898 24.4209H42.0645V27.1462H44.7898V24.4209Z" fill="#F4F4F4"/>
<path d="M33.9238 24.4209H31.2163V27.1462H33.9238V24.4209Z" fill="#F4F4F4"/>
<path d="M23.0764 46.1343H20.3511V48.8596H23.0764V46.1343Z" fill="#F4F4F4"/>
<path d="M23.0764 35.2866H20.3511V37.9941H23.0764V35.2866Z" fill="#F4F4F4"/>
<path d="M23.0764 24.4209H20.3511V27.1462H23.0764V24.4209Z" fill="#F4F4F4"/>
<path d="M12.2104 46.1343H9.50293V48.8596H12.2104V46.1343Z" fill="#F4F4F4"/>
<path d="M12.2104 35.2866H9.50293V37.9941H12.2104V35.2866Z" fill="#F4F4F4"/>
<path d="M12.2104 24.4209H9.50293V27.1462H12.2104V24.4209Z" fill="#F4F4F4"/>
<path d="M14.9357 8.14031V10.8656H17.6432V8.14031H39.3567V10.8656H42.0642V8.14031H50.2223V5.43281H42.0642V0H39.3567V5.43281H17.6432V0H14.9357V5.43281H6.79541V8.14031H14.9357Z" fill="#F4F4F4"/>
<path d="M6.79562 8.14014H4.07031V10.8654H6.79562V8.14014Z" fill="#F4F4F4"/>
</svg>