<svg width="32" height="32" viewBox="0 0 32 32" fill="none" xmlns="http://www.w3.org/2000/svg">
<g clip-path="url(#clip0_3468_8193)">
<path d="M32.0002 10.6699H30.4702V15.2399H32.0002V10.6699Z" fill="#F4F4F4"/>
<path d="M30.4702 15.2402H28.9502V19.8102H30.4702V15.2402Z" fill="#F4F4F4"/>
<path d="M28.9502 19.8101H27.4302V22.8601H28.9502V19.8101Z" fill="#F4F4F4"/>
<path d="M27.4299 13.7202H25.8999V18.2902H27.4299V13.7202Z" fill="#F4F4F4"/>
<path d="M27.4299 22.8599H12.1899V24.3799H27.4299V22.8599Z" fill="#F4F4F4"/>
<path d="M25.8999 18.29H24.3799V21.33H25.8999V18.29Z" fill="#F4F4F4"/>
<path d="M21.3301 13.7202H19.8101V21.3302H21.3301V13.7202Z" fill="#F4F4F4"/>
<path d="M16.76 18.29H15.23V21.33H16.76V18.29Z" fill="#F4F4F4"/>
<path d="M15.23 13.7202H13.71V18.2902H15.23V13.7202Z" fill="#F4F4F4"/>
<path d="M12.1902 28.9502V30.4802H13.7102V32.0002H16.7602V30.4802H18.2802V28.9502H21.3302V30.4802H22.8502V32.0002H25.9002V30.4802H27.4302V28.9502H30.4702V27.4302H25.9002V25.9102H22.8502V27.4302H16.7602V25.9102H13.7102V27.4302H10.6602V28.9502H12.1902Z" fill="#F4F4F4"/>
<path d="M12.1902 24.3799H10.6602V25.9099H12.1902V24.3799Z" fill="#F4F4F4"/>
<path d="M12.1902 18.29H10.6602V22.86H12.1902V18.29Z" fill="#F4F4F4"/>
<path d="M10.6601 25.9102H9.14014V27.4302H10.6601V25.9102Z" fill="#F4F4F4"/>
<path d="M10.6601 13.7202H9.14014V18.2902H10.6601V13.7202Z" fill="#F4F4F4"/>
<path d="M9.14012 13.7201V10.6701H30.4701V9.14014H7.62012V13.7201H9.14012Z" fill="#F4F4F4"/>
<path d="M7.61984 6.1001H6.08984V9.1401H7.61984V6.1001Z" fill="#F4F4F4"/>
<path d="M6.08982 3.0498H4.56982V6.0998H6.08982V3.0498Z" fill="#F4F4F4"/>
<path d="M4.57004 1.52002H3.04004V3.05002H4.57004V1.52002Z" fill="#F4F4F4"/>
<path d="M3.04 0H0V1.52H3.04V0Z" fill="#F4F4F4"/>
</g>
<defs>
<clipPath id="clip0_3468_8193">
<rect width="32" height="32" fill="white"/>
</clipPath>
</defs>
</svg>
