<svg width="32" height="32" viewBox="0 0 32 32" fill="none" xmlns="http://www.w3.org/2000/svg">
<path d="M27.4297 1.52002H25.9097V30.47H27.4297V1.52002Z" fill="#F4F4F4"/>
<path d="M25.9099 30.4702H22.8599V32.0002H25.9099V30.4702Z" fill="#F4F4F4"/>
<path d="M22.8598 28.9502H21.3398V30.4702H22.8598V28.9502Z" fill="#F4F4F4"/>
<path d="M22.8599 7.62012H21.3399V9.14012H19.8099V10.6601H18.2899V12.1901H16.7599V13.7101H15.2399V15.2301H13.7199V13.7101H12.1899V12.1901H10.6699V13.7101H9.1499V15.2301H10.6699V16.7601H12.1899V18.2801H13.7199V19.8101H15.2399V18.2801H16.7599V16.7601H18.2899V15.2301H19.8099V13.7101H21.3399V12.1901H22.8599V10.6601H24.3799V9.14012H22.8599V7.62012Z" fill="#F4F4F4"/>
<path d="M21.3401 27.4302H19.8101V28.9502H21.3401V27.4302Z" fill="#F4F4F4"/>
<path d="M19.81 25.8999H18.29V27.4299H19.81V25.8999Z" fill="#F4F4F4"/>
<path d="M18.2898 24.3799H16.7598V25.8999H18.2898V24.3799Z" fill="#F4F4F4"/>
<path d="M16.7597 22.8501H15.2397V24.3801H16.7597V22.8501Z" fill="#F4F4F4"/>
<path d="M15.2397 24.3799H13.7197V25.8999H15.2397V24.3799Z" fill="#F4F4F4"/>
<path d="M13.7199 25.8999H12.1899V27.4299H13.7199V25.8999Z" fill="#F4F4F4"/>
<path d="M12.1899 27.4302H10.6699V28.9502H12.1899V27.4302Z" fill="#F4F4F4"/>
<path d="M10.6699 28.9502H9.1499V30.4702H10.6699V28.9502Z" fill="#F4F4F4"/>
<path d="M25.9096 0H6.09961V1.52H25.9096V0Z" fill="#F4F4F4"/>
<path d="M9.14961 30.4702H6.09961V32.0002H9.14961V30.4702Z" fill="#F4F4F4"/>
<path d="M6.09982 1.52002H4.56982V30.47H6.09982V1.52002Z" fill="#F4F4F4"/>
</svg>
