<svg width="32" height="32" viewBox="0 0 32 32" fill="none" xmlns="http://www.w3.org/2000/svg">
<path d="M31.235 9.14502H29.715V12.185H31.235V9.14502Z" fill="#000001"/>
<path d="M29.715 7.61523H26.665V9.14524H29.715V7.61523Z" fill="#000001"/>
<path d="M26.665 18.285H28.195V13.715H29.715V12.185H26.665V9.14502H25.145V13.715H26.665V18.285Z" fill="#000001"/>
<path d="M25.145 19.8052H23.615V21.3352H25.145V22.8552H6.85502V21.3352H8.38502V19.8052H6.85502V18.2852H5.33502V25.9052H6.85502V27.4252H25.145V25.9052H26.665V18.2852H25.145V19.8052Z" fill="#000001"/>
<path d="M25.145 13.7153H23.615V15.2353H25.145V13.7153Z" fill="#000001"/>
<path d="M23.615 15.2354H22.095V16.7654H23.615V15.2354Z" fill="#000001"/>
<path d="M22.095 16.7651H20.575V18.2851H22.095V16.7651Z" fill="#000001"/>
<path d="M22.095 19.8052H19.045V21.3352H22.095V19.8052Z" fill="#000001"/>
<path d="M20.575 13.7153H19.045V16.7653H20.575V13.7153Z" fill="#000001"/>
<path d="M19.045 10.665H17.525V13.715H19.045V10.665Z" fill="#000001"/>
<path d="M19.045 6.09521H17.525V9.14522H19.045V6.09521Z" fill="#000001"/>
<path d="M17.525 9.14502H14.475V10.665H17.525V9.14502Z" fill="#000001"/>
<path d="M17.525 4.5752H14.475V6.0952H17.525V4.5752Z" fill="#000001"/>
<path d="M17.525 18.2852H14.475V21.3352H17.525V18.2852Z" fill="#000001"/>
<path d="M14.475 10.665H12.955V13.715H14.475V10.665Z" fill="#000001"/>
<path d="M14.475 6.09521H12.955V9.14522H14.475V6.09521Z" fill="#000001"/>
<path d="M12.955 13.7153H11.425V16.7653H12.955V13.7153Z" fill="#000001"/>
<path d="M12.955 19.8052H9.90503V21.3352H12.955V19.8052Z" fill="#000001"/>
<path d="M11.425 16.7651H9.90503V18.2851H11.425V16.7651Z" fill="#000001"/>
<path d="M9.90501 15.2354H8.38501V16.7654H9.90501V15.2354Z" fill="#000001"/>
<path d="M8.38504 13.7153H6.85504V15.2353H8.38504V13.7153Z" fill="#000001"/>
<path d="M2.28503 12.185V13.715H3.81503V18.285H5.33503V13.715H6.85503V9.14502H5.33503V12.185H2.28503Z" fill="#000001"/>
<path d="M5.33503 7.61523H2.28503V9.14524H5.33503V7.61523Z" fill="#000001"/>
<path d="M2.28501 9.14502H0.765015V12.185H2.28501V9.14502Z" fill="#000001"/>
</svg>
