<svg width="32" height="32" viewBox="0 0 32 32" fill="none" xmlns="http://www.w3.org/2000/svg">
<g clip-path="url(#clip0_3666_8318)">
<path d="M32.0002 21.3301H30.4702V22.8601H32.0002V21.3301Z" fill="#5EDFFF"/>
<path d="M30.47 13.7201H24.38V7.62007H25.9V6.10007H24.38V4.57007H7.62V6.10007H6.09V7.62007H4.57V9.14007H3.05V10.6701H1.52V12.1901H0V16.7601H1.52V15.2401H9.14V18.2901H10.66V21.3301H12.19V24.3801H13.71V27.4301H15.24V15.2401H21.33V18.2901H19.81V21.3301H18.28V24.3801H16.76V27.4301H15.24V28.9501H13.71V30.4801H15.24V32.0001H16.76V30.4801H18.28V28.9501H19.81V27.4301H21.33V25.9101H22.86V24.3801H24.38V22.8601H25.9V21.3301H27.43V19.8101H28.95V18.2901H30.47V16.7601H32V12.1901H30.47V13.7201ZM21.33 13.7201H10.66V12.1901H9.14V6.10007H15.24V7.62007H16.76V9.14007H18.28V10.6701H19.81V12.1901H21.33V13.7201Z" fill="#5EDFFF"/>
<path d="M30.4702 25.9099H28.9502V27.4299H30.4702V25.9099Z" fill="#5EDFFF"/>
<path d="M30.4702 10.6699H28.9502V12.1899H30.4702V10.6699Z" fill="#5EDFFF"/>
<path d="M28.9502 27.4299H27.4302V28.9499H28.9502V27.4299Z" fill="#5EDFFF"/>
<path d="M28.9502 24.3799H27.4302V25.9099H28.9502V24.3799Z" fill="#5EDFFF"/>
<path d="M28.9502 9.13989H27.4302V10.6699H28.9502V9.13989Z" fill="#5EDFFF"/>
<path d="M27.4299 3.05002H25.8999V4.57002H27.4299V6.10002H28.9499V4.57002H30.4699V3.05002H28.9499V1.52002H27.4299V3.05002Z" fill="#5EDFFF"/>
<path d="M27.4299 25.9099H25.8999V27.4299H27.4299V25.9099Z" fill="#5EDFFF"/>
<path d="M27.4299 7.62012H25.8999V9.14012H27.4299V7.62012Z" fill="#5EDFFF"/>
<path d="M24.3799 30.48H22.8599V32H24.3799V30.48Z" fill="#5EDFFF"/>
<path d="M24.3799 0H22.8599V1.52H24.3799V0Z" fill="#5EDFFF"/>
<path d="M15.24 7.62012H13.71V9.14012H15.24V7.62012Z" fill="#5EDFFF"/>
<path d="M15.24 1.52002H13.71V3.05002H15.24V1.52002Z" fill="#5EDFFF"/>
<path d="M13.7099 27.4299H12.1899V28.9499H13.7099V27.4299Z" fill="#5EDFFF"/>
<path d="M13.7099 9.13989H12.1899V10.6699H13.7099V9.13989Z" fill="#5EDFFF"/>
<path d="M12.1902 25.9099H10.6602V27.4299H12.1902V25.9099Z" fill="#5EDFFF"/>
<path d="M12.1902 10.6699H10.6602V12.1899H12.1902V10.6699Z" fill="#5EDFFF"/>
<path d="M10.6601 28.95H9.14014V30.4799H10.6601V28.95Z" fill="#5EDFFF"/>
<path d="M10.6601 24.3799H9.14014V25.9099H10.6601V24.3799Z" fill="#5EDFFF"/>
<path d="M9.14012 22.8601H7.62012V24.3801H9.14012V22.8601Z" fill="#5EDFFF"/>
<path d="M7.61984 21.3301H6.08984V22.8601H7.61984V21.3301Z" fill="#5EDFFF"/>
<path d="M6.08982 19.8101H4.56982V21.3301H6.08982V19.8101Z" fill="#5EDFFF"/>
<path d="M6.08982 3.05005H4.56982V4.57005H6.08982V3.05005Z" fill="#5EDFFF"/>
<path d="M3.05002 24.3799V25.9099H1.52002V27.4299H3.05002V28.9499H4.57002V27.4299H6.09002V25.9099H4.57002V24.3799H3.05002Z" fill="#5EDFFF"/>
<path d="M4.5698 18.29H3.0498V19.81H4.5698V18.29Z" fill="#5EDFFF"/>
<path d="M4.5698 4.57007H3.0498V6.10007H4.5698V4.57007Z" fill="#5EDFFF"/>
<path d="M4.5698 1.52002H3.0498V3.05002H4.5698V1.52002Z" fill="#5EDFFF"/>
<path d="M3.05002 16.76H1.52002V18.29H3.05002V16.76Z" fill="#5EDFFF"/>
<path d="M3.05002 3.05005H1.52002V4.57005H3.05002V3.05005Z" fill="#5EDFFF"/>
<path d="M1.52 21.3301H0V22.8601H1.52V21.3301Z" fill="#5EDFFF"/>
</g>
<defs>
<clipPath id="clip0_3666_8318">
<rect width="32" height="32" fill="white"/>
</clipPath>
</defs>
</svg>
