<svg width="32" height="32" viewBox="0 0 32 32" fill="none" xmlns="http://www.w3.org/2000/svg">
<g clip-path="url(#clip0_3651_714)">
<path d="M32 12.1899H30.48V13.7099H32V12.1899Z" fill="#F4F4F4"/>
<path d="M30.48 13.71H28.95V15.23H30.48V13.71Z" fill="#F4F4F4"/>
<path d="M28.95 27.4302H27.43V30.4702H28.95V27.4302Z" fill="#F4F4F4"/>
<path d="M27.43 24.3799H25.9V27.4299H27.43V24.3799Z" fill="#F4F4F4"/>
<path d="M28.95 15.23H25.9V16.76H28.95V15.23Z" fill="#F4F4F4"/>
<path d="M27.43 30.4702H24.38V32.0002H27.43V30.4702Z" fill="#F4F4F4"/>
<path d="M25.9 21.3301H24.38V24.3801H25.9V21.3301Z" fill="#F4F4F4"/>
<path d="M25.9 16.7598H24.38V18.2798H25.9V16.7598Z" fill="#F4F4F4"/>
<path d="M24.38 28.9502H22.86V30.4702H24.38V28.9502Z" fill="#F4F4F4"/>
<path d="M24.38 18.2798H22.86V21.3298H24.38V18.2798Z" fill="#F4F4F4"/>
<path d="M22.86 27.4302H19.81V28.9502H22.86V27.4302Z" fill="#F4F4F4"/>
<path d="M30.48 10.6602H21.33V12.1902H30.48V10.6602Z" fill="#F4F4F4"/>
<path d="M21.33 7.62012H19.81V10.6601H21.33V7.62012Z" fill="#F4F4F4"/>
<path d="M19.81 25.8999H18.29V27.4299H19.81V25.8999Z" fill="#F4F4F4"/>
<path d="M19.52 19H18V20.52H19.52V19Z" fill="#F4F4F4"/>
<path d="M19.81 4.56982H18.29V7.61982H19.81V4.56982Z" fill="#F4F4F4"/>
<path d="M18.29 24.3799H16.76V25.8999H18.29V24.3799Z" fill="#F4F4F4"/>
<path d="M18.29 13.71H16.76V15.23H18.29V13.71Z" fill="#F4F4F4"/>
<path d="M18.29 1.52002H16.76V4.57002H18.29V1.52002Z" fill="#F4F4F4"/>
<path d="M16.76 22.8501H15.24V24.3801H16.76V22.8501Z" fill="#F4F4F4"/>
<path d="M16.76 0H15.24V1.52H16.76V0Z" fill="#F4F4F4"/>
<path d="M15.24 24.3799H13.71V25.8999H15.24V24.3799Z" fill="#F4F4F4"/>
<path d="M15.24 13.71H13.71V15.23H15.24V13.71Z" fill="#F4F4F4"/>
<path d="M15.24 1.52002H13.71V4.57002H15.24V1.52002Z" fill="#F4F4F4"/>
<path d="M13.71 25.8999H12.19V27.4299H13.71V25.8999Z" fill="#F4F4F4"/>
<path d="M13.71 4.56982H12.19V7.61982H13.71V4.56982Z" fill="#F4F4F4"/>
<path d="M12.19 7.62012H10.67V10.6601H12.19V7.62012Z" fill="#F4F4F4"/>
<path d="M12.19 27.4302H9.14001V28.9502H12.19V27.4302Z" fill="#F4F4F4"/>
<path d="M9.14 28.9502H7.62V30.4702H9.14V28.9502Z" fill="#F4F4F4"/>
<path d="M9.14 18.2798H7.62V21.3298H9.14V18.2798Z" fill="#F4F4F4"/>
<path d="M7.61998 21.3301H6.09998V24.3801H7.61998V21.3301Z" fill="#F4F4F4"/>
<path d="M7.61998 16.7598H6.09998V18.2798H7.61998V16.7598Z" fill="#F4F4F4"/>
<path d="M7.62001 30.4702H4.57001V32.0002H7.62001V30.4702Z" fill="#F4F4F4"/>
<path d="M6.10001 24.3799H4.57001V27.4299H6.10001V24.3799Z" fill="#F4F4F4"/>
<path d="M6.09999 15.23H3.04999V16.76H6.09999V15.23Z" fill="#F4F4F4"/>
<path d="M4.56999 27.4302H3.04999V30.4702H4.56999V27.4302Z" fill="#F4F4F4"/>
<path d="M10.67 10.6602H1.52002V12.1902H10.67V10.6602Z" fill="#F4F4F4"/>
<path d="M3.05002 13.71H1.52002V15.23H3.05002V13.71Z" fill="#F4F4F4"/>
<path d="M1.52 12.1899H0V13.7099H1.52V12.1899Z" fill="#F4F4F4"/>
<path d="M18.58 18H14V19.53H18.58V18Z" fill="#F4F4F4"/>
</g>
<defs>
<clipPath id="clip0_3651_714">
<rect width="32" height="32" fill="white"/>
</clipPath>
</defs>
</svg>
