<svg width="64" height="64" viewBox="0 0 64 64" fill="none" xmlns="http://www.w3.org/2000/svg">
<path d="M50.2898 18.2803V27.4203H38.0898V33.5203H50.2898V42.6603H53.3298V39.6203H56.3898V36.5803H59.4298V33.5203H62.4698V27.4203H59.4298V24.3803H56.3898V21.3403H53.3298V18.2803H50.2898Z" fill="#F4F4F4"/>
<path d="M44.1904 42.6602H41.1504V54.8602H44.1904V42.6602Z" fill="#F4F4F4"/>
<path d="M44.1904 3.04004H41.1504V18.28H44.1904V3.04004Z" fill="#F4F4F4"/>
<path d="M28.9502 60.9602V57.9002H41.1502V54.8602H28.9502V15.2402H25.9102V60.9602H28.9502Z" fill="#F4F4F4"/>
<path d="M25.9105 60.96H16.7705V64H25.9105V60.96Z" fill="#F4F4F4"/>
<path d="M22.8505 33.5195H19.8105V39.6195H22.8505V33.5195Z" fill="#F4F4F4"/>
<path d="M25.9105 12.2002H19.8105V15.2402H25.9105V12.2002Z" fill="#F4F4F4"/>
<path d="M16.7699 57.9004H10.6699V60.9604H16.7699V57.9004Z" fill="#F4F4F4"/>
<path d="M19.81 9.13965H13.71V12.1996H19.81V9.13965Z" fill="#F4F4F4"/>
<path d="M10.6703 54.8604H4.57031V57.9004H10.6703V54.8604Z" fill="#F4F4F4"/>
<path d="M13.7099 6.09961H7.62988V9.13961H13.7099V6.09961Z" fill="#F4F4F4"/>
<path d="M4.57027 0V3.04H1.53027V54.86H4.57027V6.1H7.63027V3.04H41.1503V0H4.57027Z" fill="#F4F4F4"/>
</svg>
