<svg width="33" height="32" viewBox="0 0 33 32" fill="none" xmlns="http://www.w3.org/2000/svg">
<g clip-path="url(#clip0_3483_23358)">
<path d="M32.9493 3.05005H31.4193V30.48H32.9493V3.05005Z" fill="#F4F4F4"/>
<path d="M31.4193 1.52002H29.8993V3.05002H31.4193V1.52002Z" fill="#F4F4F4"/>
<path d="M28.3794 16.76H26.8494V30.48H7.03936V16.76H5.51936V30.48H2.46936V32H31.4194V30.48H28.3794V16.76Z" fill="#F4F4F4"/>
<path d="M19.2294 9.14005H25.3294V3.05005H19.2294V9.14005ZM20.7594 4.57005H22.2794V7.62005H20.7594V4.57005Z" fill="#F4F4F4"/>
<path d="M23.7994 25.8999H10.0894V27.4299H23.7994V25.8999Z" fill="#F4F4F4"/>
<path d="M23.7994 21.3301H10.0894V22.8601H23.7994V21.3301Z" fill="#F4F4F4"/>
<path d="M26.8493 15.24H7.03931V16.76H26.8493V15.24Z" fill="#F4F4F4"/>
<path d="M5.51939 9.14H7.03939V1.52H10.0894V9.14H7.03939V10.67H10.0894V12.19H28.3794V1.52H29.8994V0H3.99939V1.52H5.51939V9.14ZM11.6094 1.52H26.8494V10.67H11.6094V1.52Z" fill="#F4F4F4"/>
<path d="M3.99936 1.52002H2.46936V3.05002H3.99936V1.52002Z" fill="#F4F4F4"/>
<path d="M2.46934 3.05005H0.949341V30.48H2.46934V3.05005Z" fill="#F4F4F4"/>
</g>
<defs>
<clipPath id="clip0_3483_23358">
<rect width="32" height="32" fill="white" transform="translate(0.949341)"/>
</clipPath>
</defs>
</svg>
