<svg width="32" height="32" viewBox="0 0 32 32" fill="none" xmlns="http://www.w3.org/2000/svg">
<g clip-path="url(#clip0_3468_8174)">
<path d="M31.2353 5.33984H29.7153V12.9498H31.2353V5.33984Z" fill="#F4F4F4"/>
<path d="M26.665 5.33955H29.715V3.80955H26.665V2.28955H25.145V17.5296H26.665V14.4796H29.715V12.9496H26.665V5.33955Z" fill="#F4F4F4"/>
<path d="M25.1452 17.5298H23.6152V19.0498H25.1452V17.5298Z" fill="#F4F4F4"/>
<path d="M23.6152 19.0498H22.0952V20.5698H23.6152V19.0498Z" fill="#F4F4F4"/>
<path d="M9.90498 29.7199V28.1899H8.38498V29.7199H6.85498V31.2399H25.145V29.7199H23.615V28.1899H22.095V29.7199H9.90498Z" fill="#F4F4F4"/>
<path d="M22.0949 26.6699H19.0449V28.1899H22.0949V26.6699Z" fill="#F4F4F4"/>
<path d="M22.0949 20.5698H19.0449V22.0998H22.0949V20.5698Z" fill="#F4F4F4"/>
<path d="M17.5253 8.37984V5.33984H14.4753V8.37984H9.90527V9.90984H11.4253V11.4298H12.9553V12.9498H11.4253V15.9998H14.4753V14.4798H17.5253V15.9998H20.5753V12.9498H19.0453V11.4298H20.5753V9.90984H22.0953V8.37984H17.5253Z" fill="#F4F4F4"/>
<path d="M19.0449 22.0996H17.5249V26.6696H19.0449V22.0996Z" fill="#F4F4F4"/>
<path d="M14.4751 22.0996H12.9551V26.6696H14.4751V22.0996Z" fill="#F4F4F4"/>
<path d="M12.9553 26.6699H9.90527V28.1899H12.9553V26.6699Z" fill="#F4F4F4"/>
<path d="M12.9553 20.5698H9.90527V22.0998H12.9553V20.5698Z" fill="#F4F4F4"/>
<path d="M9.90525 19.0498H8.38525V20.5698H9.90525V19.0498Z" fill="#F4F4F4"/>
<path d="M25.145 0.759766H6.85498V2.28977H25.145V0.759766Z" fill="#F4F4F4"/>
<path d="M8.38498 17.5298H6.85498V19.0498H8.38498V17.5298Z" fill="#F4F4F4"/>
<path d="M6.85516 2.28955H5.33516V3.80955H2.28516V5.33955H5.33516V12.9496H2.28516V14.4796H5.33516V17.5296H6.85516V2.28955Z" fill="#F4F4F4"/>
<path d="M2.28514 5.33984H0.765137V12.9498H2.28514V5.33984Z" fill="#F4F4F4"/>
</g>
<defs>
<clipPath id="clip0_3468_8174">
<rect width="32" height="32" fill="white"/>
</clipPath>
</defs>
</svg>
