<svg width="33" height="32" viewBox="0 0 33 32" fill="none" xmlns="http://www.w3.org/2000/svg">
<g clip-path="url(#clip0_3457_2505)">
<path d="M31.4293 9.14H29.8993V6.09H28.3793V4.57H26.8493V3.05H23.8093V1.52H20.7593V0H13.1393V1.52H10.0893V3.05H7.03934V4.57H5.51934V6.09H3.99934V9.14H2.46934V12.19H0.949341V19.81H2.46934V22.86H3.99934V25.9H5.51934V27.43H7.03934V28.95H10.0893V30.48H13.1393V32H20.7593V30.48H23.8093V28.95H26.8493V27.43H28.3793V25.9H29.8993V22.86H31.4293V19.81H32.9493V12.19H31.4293V9.14ZM26.8493 21.33H25.3293V22.86H23.8093V24.38H19.2393V22.86H20.7593V21.33H22.2793V19.81H20.7593V18.29H14.6593V21.33H13.1393V19.81H11.6193V18.29H10.0893V16.76H8.56934V15.24H7.03934V13.71H8.56934V12.19H10.0893V10.67H11.6193V9.14H13.1393V7.62H14.6593V10.67H23.8093V12.19H25.3293V13.71H26.8493V21.33Z" fill="#F4F4F4"/>
</g>
<defs>
<clipPath id="clip0_3457_2505">
<rect width="32" height="32" fill="white" transform="translate(0.949341)"/>
</clipPath>
</defs>
</svg>
